<svg width="512" height="128" viewBox="0 0 512 128" fill="none" xmlns="http://www.w3.org/2000/svg">
  <rect width="512" height="128" fill="transparent"/>
  <g transform="translate(14 14)">
    <!-- LegalCrew mark (hex-cluster style) -->
    <polygon points="46,0 68,12 68,36 46,48 24,36 24,12" fill="#3F6BFF"/>
    <polygon points="72,14 94,26 94,50 72,62 50,50 50,26" fill="#1F3FAF"/>
    <polygon points="46,28 68,40 68,64 46,76 24,64 24,40" fill="#5E87FF"/>
    <polygon points="20,14 42,26 42,50 20,62 -2,50 -2,26" fill="#294FCA"/>
    <polygon points="72,-14 94,-2 94,22 72,34 50,22 50,-2" fill="#2F58D8"/>
    <polygon points="98,0 120,12 120,36 98,48 76,36 76,12" fill="#2A4DC2"/>
  </g>

  <!-- Wordmark -->
  <text x="160" y="60" fill="#EAF0FF" font-size="42" font-family="'Noto Sans KR', Arial, sans-serif" font-weight="700" letter-spacing="0.2">
    LegalCrew
  </text>
  <text x="163" y="90" fill="#9EB3FF" font-size="18" font-family="'Noto Sans KR', Arial, sans-serif" font-weight="500" letter-spacing="0.8">
    ACADEMY
  </text>
</svg>
